<svg id="visual" viewBox="0 0 900 600" width="900" height="600" xmlns="http://www.w3.org/2000/svg" xmlns:xlink="http://www.w3.org/1999/xlink" version="1.1"><rect x="0" y="0" width="900" height="600" fill="#bb734a"></rect><path d="M0 440L100 424L200 465L300 460L400 469L500 422L600 447L700 436L800 421L900 461L900 601L800 601L700 601L600 601L500 601L400 601L300 601L200 601L100 601L0 601Z" fill="#d56204"></path><path d="M0 475L100 468L200 488L300 486L400 451L500 478L600 470L700 451L800 460L900 470L900 601L800 601L700 601L600 601L500 601L400 601L300 601L200 601L100 601L0 601Z" fill="#c24f04"></path><path d="M0 503L100 487L200 505L300 503L400 507L500 482L600 507L700 482L800 515L900 484L900 601L800 601L700 601L600 601L500 601L400 601L300 601L200 601L100 601L0 601Z" fill="#af3c03"></path><path d="M0 523L100 527L200 519L300 519L400 524L500 536L600 524L700 521L800 524L900 526L900 601L800 601L700 601L600 601L500 601L400 601L300 601L200 601L100 601L0 601Z" fill="#9b2903"></path><path d="M0 558L100 548L200 551L300 551L400 548L500 549L600 544L700 542L800 551L900 557L900 601L800 601L700 601L600 601L500 601L400 601L300 601L200 601L100 601L0 601Z" fill="#871400"></path></svg>